<svg width="265" height="265" viewBox="0 0 265 265" fill="none" xmlns="http://www.w3.org/2000/svg">
<path fill-rule="evenodd" clip-rule="evenodd" d="M132.5 262.93C204.534 262.93 262.93 204.534 262.93 132.5C262.93 60.4657 204.534 2.07031 132.5 2.07031C60.4657 2.07031 2.07031 60.4657 2.07031 132.5C2.07031 204.534 60.4657 262.93 132.5 262.93ZM164.202 101.445H179.729V70.3906H86.5649V101.445H102.092V93.6816C102.092 91.6226 102.91 89.6479 104.366 88.1919C105.822 86.7359 107.797 85.918 109.856 85.918H125.057V171.318C125.057 173.377 124.239 175.352 122.783 176.808C121.327 178.264 119.353 179.082 117.294 179.082H109.53V194.609H156.112V179.082H148.348C146.289 179.082 144.314 178.264 142.858 176.808C141.403 175.352 140.585 173.377 140.585 171.318V85.918H156.438C158.497 85.918 160.472 86.7359 161.928 88.1919C163.384 89.6479 164.202 91.6226 164.202 93.6816V101.445ZM202.275 110.544L224.976 133.245L203.02 155.201L213.998 166.179L241.45 138.742V127.764L213.253 99.5665L202.275 110.544ZM41.3183 132.5L64.0192 155.201L53.0414 166.179L24.8438 137.997V127.003L52.2961 99.5665L63.2739 110.544L41.3183 132.5Z" fill="#3794FF"/>
</svg>
