<svg
   width="128"
   height="128"
   viewBox="0 0 128 128"
   version="1.1"
   xmlns="http://www.w3.org/2000/svg"
   xmlns:svg="http://www.w3.org/2000/svg">
  <path
      style="fill:#3794ff;"
      d="M 64 2 A 62.000001 62.000001 0 0 0 2 64 A 62.000001 62.000001 0 0 0 64 126 A 62.000001 62.000001 0 0 0 126 64 A 62.000001 62.000001 0 0 0 64 2 z M 57.119141 22.666016 L 70.773438 22.666016 L 104.48047 97.333984 L 89.972656 97.333984 L 82.505859 80.052734 L 45.173828 80.052734 L 37.8125 97.333984 L 23.519531 97.333984 L 57.119141 22.666016 z M 63.839844 36.533203 L 49.867188 69.173828 L 77.919922 69.173828 L 63.839844 36.533203 z M 47.910156 82.417969 C 48.992825 82.417969 49.720703 83.090327 49.720703 83.986328 C 49.720703 84.956994 48.992825 85.666016 47.910156 85.666016 C 46.827492 85.666016 46.099609 84.957633 46.099609 84.042969 C 46.099609 83.1283 46.827492 82.417969 47.910156 82.417969 z M 64.111328 83.818359 C 67.116661 83.818359 69.169922 85.256736 69.169922 87.552734 C 69.169922 88.728734 68.611291 89.642903 67.640625 90.240234 C 68.90996 90.874904 69.636719 91.920311 69.636719 93.320312 C 69.636719 95.784315 67.433994 97.333984 64.111328 97.333984 C 60.807326 97.333984 58.623047 95.784315 58.623047 93.320312 C 58.623047 91.920311 59.352847 90.874904 60.603516 90.240234 C 59.63285 89.642903 59.089844 88.728734 59.089844 87.552734 C 59.089844 85.256736 61.143326 83.818359 64.111328 83.818359 z M 50.783203 84.042969 L 56.421875 84.042969 L 56.421875 97.109375 L 53.396484 97.109375 L 53.396484 86.46875 L 50.783203 86.46875 L 50.783203 84.042969 z M 64 86.041016 C 62.849818 86.078118 62.095703 86.68901 62.095703 87.683594 C 62.095703 88.67293 62.879327 89.289062 64.111328 89.289062 C 65.361996 89.289062 66.166016 88.67293 66.166016 87.683594 C 66.166016 86.656927 65.343329 86.041016 64.111328 86.041016 C 64.073411 86.041016 64.037103 86.039819 64 86.041016 z M 77.611328 86.917969 C 77.653541 86.91706 77.695698 86.917969 77.738281 86.917969 C 80.108952 86.917969 81.900391 88.298041 81.900391 91.359375 L 81.900391 97.109375 L 78.990234 97.109375 L 78.990234 91.808594 C 78.990234 90.184595 78.243081 89.4375 76.955078 89.4375 C 75.555084 89.4375 74.546875 90.296531 74.546875 92.144531 L 74.546875 97.109375 L 71.634766 97.109375 L 71.634766 87.066406 L 74.416016 87.066406 L 74.416016 88.242188 C 75.175518 87.410354 76.302741 86.946153 77.611328 86.917969 z M 46.453125 87.066406 L 49.365234 87.066406 L 49.365234 97.109375 L 46.453125 97.109375 L 46.453125 87.066406 z M 64.111328 91.359375 C 62.617995 91.359375 61.685547 92.06923 61.685547 93.226562 C 61.685547 94.383895 62.617995 95.111328 64.111328 95.111328 C 65.623328 95.111328 66.576172 94.383895 66.576172 93.226562 C 66.576172 92.06923 65.623328 91.359375 64.111328 91.359375 z "/>
</svg>
