<svg width="128" height="128" viewBox="0 0 128 128" fill="none" xmlns="http://www.w3.org/2000/svg">
<path fill-rule="evenodd" clip-rule="evenodd" d="M91.5269 45.6463H82.3513V41.0585C82.3513 39.8417 81.8679 38.6748 81.0075 37.8144C80.1471 36.954 78.9802 36.4706 77.7634 36.4706H68.3951V86.9366C68.3951 88.1534 68.8785 89.3203 69.7389 90.1807C70.5992 91.041 71.7662 91.5244 72.9829 91.5244H77.5708V100.7H50.0439V91.5244H54.6317C55.8484 91.5244 57.0154 91.041 57.8758 90.1807C58.7361 89.3203 59.2195 88.1534 59.2195 86.9366V36.4706H50.2366C49.0198 36.4706 47.8529 36.954 46.9925 37.8144C46.1321 38.6748 45.6487 39.8417 45.6487 41.0585V45.6463H36.4731V27.295H91.5269V45.6463ZM118.265 64.438L104.85 51.0232L111.337 44.536L128 61.199V67.6861L111.777 83.8995L105.29 77.4123L118.265 64.438ZM23.1501 77.4123L9.73534 63.9975L22.7097 51.0232L16.2225 44.536L0 60.7493V67.2457L16.6629 83.8995L23.1501 77.4123Z" fill="#3794FF"/>
</svg>
